<svg width="190" height="34" viewBox="0 0 190 34" fill="none" xmlns="http://www.w3.org/2000/svg">
<path d="M61.1261 22.4843L66.2516 28.63H60.1949L55.9779 22.9913H50.2997V28.63H45V4.63099H50.2997H58.1431C59.3162 4.61329 60.4808 4.83467 61.568 5.28201C62.6552 5.72934 63.6428 6.39354 64.4725 7.23525C66.0971 9.01009 67 11.3428 67 13.7651C67 16.1874 66.0971 18.5201 64.4725 20.2949C63.5441 21.2839 62.397 22.0343 61.1261 22.4843ZM61.7545 13.8265C61.7841 13.3384 61.7115 12.8496 61.5415 12.392C61.3716 11.9344 61.1081 11.5185 60.7684 11.1717C60.4287 10.8248 60.0205 10.5548 59.5707 10.3795C59.1208 10.2042 58.6395 10.1275 58.1583 10.1545H50.3148V17.4986H58.1583C58.6429 17.5261 59.1277 17.4484 59.5803 17.2708C60.033 17.0933 60.4432 16.8198 60.7835 16.4687C61.1238 16.1176 61.3864 15.6969 61.5538 15.2346C61.7213 14.7724 61.7897 14.2793 61.7545 13.7881V13.8265Z" fill="#1542D3"/>
<path d="M92.9984 14.1338C93.0393 16.6566 92.0888 19.0939 90.353 20.9172C89.4846 21.791 88.4504 22.4806 87.3117 22.9452C86.173 23.4097 84.953 23.6396 83.7241 23.6212H75.3138V28.63H70V4.63102H75.3138H83.7241C84.953 4.61269 86.173 4.84261 87.3117 5.30712C88.4504 5.77164 89.4846 6.46131 90.353 7.33515C92.0933 9.16175 93.0442 11.6056 92.9984 14.1338ZM87.6846 14.1338C87.7177 13.6008 87.6382 13.0669 87.4514 12.5669C87.2646 12.067 86.9747 11.6124 86.6007 11.2329C86.2267 10.8535 85.777 10.5579 85.2813 10.3654C84.7855 10.1729 84.2549 10.088 83.7241 10.1161H75.3138V18.1593H83.7241C84.2556 18.1875 84.7869 18.1023 85.2832 17.9094C85.7795 17.7164 86.2296 17.4201 86.6037 17.0398C86.9778 16.6595 87.2676 16.204 87.4539 15.7031C87.6402 15.2022 87.7188 14.6674 87.6846 14.1338Z" fill="#1542D3"/>
<path d="M117 28.63H111.404L109.938 25.1773H98.1019L96.6364 28.63H91L101.178 4.63H106.774L117 28.63ZM107.619 19.7098L104.02 11.251L100.421 19.7098H107.619Z" fill="#1542D3"/>
<path d="M140 23.8187C138.863 25.6064 137.272 27.0731 135.385 28.0751C133.427 29.1134 131.233 29.6478 129.008 29.6285C127.285 29.6543 125.574 29.3404 123.976 28.7054C122.379 28.0704 120.927 27.1271 119.706 25.9313C117.324 23.4016 116 20.0813 116 16.6339C116 13.1866 117.324 9.86625 119.706 7.33652C120.925 6.13791 122.376 5.1923 123.974 4.55583C125.572 3.91937 127.284 3.60505 129.008 3.63155C131.233 3.61233 133.427 4.14673 135.385 5.185C137.272 6.18697 138.863 7.6537 140 9.44146L135.369 12.4163C134.684 11.3816 133.738 10.5388 132.623 9.96987C131.508 9.40093 130.263 9.12526 129.008 9.16963C124.582 9.16963 121.492 12.2765 121.492 16.6494C121.492 21.0224 124.582 24.0983 129.008 24.0983C130.263 24.1442 131.509 23.8691 132.624 23.3001C133.739 22.731 134.685 21.8873 135.369 20.8516L140 23.8187Z" fill="#1542D3"/>
<path d="M164.998 14.1338C165.023 15.389 164.801 16.6369 164.345 17.806C163.89 18.9752 163.209 20.0429 162.342 20.9479C161.472 21.8217 160.436 22.5114 159.296 22.9759C158.156 23.4404 156.934 23.6703 155.704 23.652H147.321V28.63H142V4.63102H147.321H155.704C156.934 4.61269 158.156 4.84261 159.296 5.30712C160.436 5.77164 161.472 6.46131 162.342 7.33515C164.09 9.15867 165.045 11.6039 164.998 14.1338ZM159.677 14.1338C159.711 13.6002 159.631 13.0655 159.443 12.565C159.256 12.0645 158.965 11.6095 158.589 11.2299C158.214 10.8504 157.763 10.5549 157.266 10.3629C156.768 10.171 156.236 10.0868 155.704 10.1161H147.321V18.1593H155.704C156.236 18.1874 156.769 18.1022 157.266 17.9093C157.763 17.7164 158.214 17.4202 158.59 17.0401C158.965 16.66 159.256 16.2045 159.443 15.7036C159.631 15.2028 159.71 14.6678 159.677 14.1338Z" fill="#1542D3"/>
<path d="M190 23.8186C188.867 25.6077 187.279 27.0749 185.391 28.0751C183.432 29.1133 181.237 29.6477 179.012 29.6285C177.287 29.6544 175.574 29.3406 173.975 28.7056C172.375 28.0706 170.921 27.1273 169.699 25.9313C167.321 23.3991 166 20.0797 166 16.6339C166 13.1882 167.321 9.86874 169.699 7.33649C170.92 6.13801 172.373 5.19255 173.973 4.55613C175.573 3.91971 177.286 3.6053 179.012 3.63152C181.237 3.6123 183.432 4.1467 185.391 5.18497C187.279 6.1851 188.867 7.65238 190 9.44144L185.407 12.3852C184.725 11.3562 183.785 10.5171 182.677 9.94846C181.57 9.37983 180.332 9.1009 179.083 9.1385C174.656 9.1385 171.565 12.2454 171.565 16.6184C171.565 20.9913 174.656 24.0905 179.083 24.0905C180.332 24.1296 181.571 23.8513 182.678 23.2825C183.786 22.7138 184.726 21.8738 185.407 20.8438L190 23.8186Z" fill="#1542D3"/>
<path d="M9.69009 4.44005L9.3101 4.76006C9.27346 4.79745 9.25293 4.84772 9.25293 4.90007C9.25293 4.95243 9.27346 5.00264 9.3101 5.04003L17.0701 14.47L26.6801 8.79003L19.0901 16.92L32.5801 33.29L34.3501 17.8401C35.8801 4.32008 20.2101 -4.19995 9.69009 4.44005Z" fill="#36A968"/>
<path d="M15.0388 16.08L1.7988 0L0.108801 14.76C-1.4712 28.53 14.5088 37.21 25.1988 28.4L17.0688 18.54L7.4088 24.26L15.0388 16.08Z" fill="#1542D3"/>
</svg>
